:SAMPLES-PER-SECOND 30
:FULLY-SPECIFIED
:DEGREES
93
root  7.40433 37.5046 2.33533 14.8242 86.7415 16.1504
RightUpLeg  16.6224 -0.700713 -2.07619
RightLeg  22.7751 17.6492 3.93787
RightFoot  -8.78332 -0.239969 6.37098
RightToes  -2.32832e-010 -1.59028e-015 9.93923e-017
Spine  3.23912 2.91698 8.2676
Spine1  11.7225 6.49869 -12.2936
HEad  -17.699 -4.91393 6.50866
LeftShoulder1  9.93923e-017 0 1.22299e-017
LeftArm  -15.2683 50.1607 -65.4539
LeftForeArm  3.59867 -1.25631 -3.97207
LeftHand  1.15423 8.7171 -5.14297
RightShoulder  1.98785e-016 -4.96962e-017 1.55301e-017
RightArm  -15.9205 -8.27013 81.1963
RightForeArm  -178.474 31.2409 -27.0444
RightHand  2.63011 9.91432 24.7825
LeftUpLeg  -27.4863 -9.07846 -1.75903
LeftLeg  18.8481 2.82558 4.22188
LeftFoot  8.33031 -0.176165 1.04374
LeftToes  1.49248e-009 -4.82331e-011 8.60243e-011
94
root  8.9905 37.5181 2.19498 33.8593 86.058 35.3867
RightUpLeg  13.0008 0.430982 -3.78649
RightLeg  32.2259 15.9784 4.31217
RightFoot  2.45924 -1.30454 9.5393
RightToes  -2.32832e-010 -1.59028e-015 9.93923e-017
Spine  4.56045 2.61201 5.97843
Spine1  10.9345 5.9888 -12.9742
HEad  -16.8942 -4.4667 6.04513
LeftShoulder1  9.93923e-017 0 1.22299e-017
LeftArm  -17.4692 46.2222 -68.9385
LeftForeArm  3.28355 -1.34941 -4.29309
LeftHand  1.14008 8.58843 -5.28229
RightShoulder  1.98785e-016 -4.96962e-017 1.55301e-017
RightArm  -15.6555 -14.0676 83.5492
RightForeArm  -177.12 26.9743 -24.1129
RightHand  2.39758 9.39176 23.5824
LeftUpLeg  -26.5545 -9.44423 -3.82551
LeftLeg  22.8542 2.74093 5.48814
LeftFoot  3.56465 -0.249986 1.7431
LeftToes  1.49248e-009 -4.82331e-011 8.60243e-011
95
root  10.4824 37.4702 2.08278 42.5678 85.2837 44.1078
RightUpLeg  7.46592 1.9019 -4.72112
RightLeg  42.5905 13.6392 3.5823
RightFoot  14.0053 -3.04071 12.5793
RightToes  -2.32832e-010 -1.59028e-015 9.93923e-017
Spine  5.53467 2.33154 3.42903
Spine1  10.2115 5.05976 -12.7661
HEad  -15.7837 -3.29726 5.06377
LeftShoulder1  9.93923e-017 0 1.22299e-017
LeftArm  -18.0544 41.6486 -72.6197
LeftForeArm  2.2078 -1.69711 -5.0829
LeftHand  1.09707 8.11 -5.01912
RightShoulder  1.98785e-016 -4.96962e-017 1.55301e-017
RightArm  -14.7988 -19.336 85.7356
RightForeArm  -173.992 20.9626 -20.2844
RightHand  2.10511 9.27861 21.557
LeftUpLeg  -25.4208 -9.72757 -5.45338
LeftLeg  25.9627 2.84519 6.61773
LeftFoot  0.0440815 -0.219108 1.85603
LeftToes  1.49248e-009 -4.82331e-011 8.60243e-011
96
root  11.9922 37.5451 2.01578 49.11 84.8524 50.6131
RightUpLeg  1.62451 2.65131 -5.24671
RightLeg  51.2234 12.1328 2.54196
RightFoot  19.8642 -4.35377 14.6547
RightToes  -2.32832e-010 -1.59028e-015 9.93923e-017
Spine  5.76225 1.88758 0.566105
Spine1  10.0182 3.72378 -11.4802
HEad  -14.8921 -1.86286 4.14627
LeftShoulder1  9.93923e-017 0 1.22299e-017
LeftArm  -15.1771 36.4192 -75.8719
LeftForeArm  -1.29558 -2.66496 -6.11957
LeftHand  1.02123 7.31166 -4.08985
RightShoulder  1.98785e-016 -4.96962e-017 1.55301e-017
RightArm  -18.2947 -24.3374 87.1056
RightForeArm  -165.799 15.0132 -14.6384
RightHand  1.97276 9.83495 20.2519
LeftUpLeg  -23.3522 -9.96792 -6.7118
LeftLeg  27.2616 2.84088 7.09218
LeftFoot  -2.50004 -0.153643 1.52949
LeftToes  1.49248e-009 -4.82331e-011 8.60243e-011
97
root  13.6429 37.8764 1.95244 54.083 85.4124 55.7529
RightUpLeg  -3.52842 2.20633 -4.85536
RightLeg  56.8608 11.8212 2.42447
RightFoot  19.293 -4.07538 13.9798
RightToes  -2.32832e-010 -1.59028e-015 9.93923e-017
Spine  5.34454 1.02348 -1.11323
Spine1  10.1857 2.15785 -9.75965
HEad  -14.025 -0.63726 3.52938
LeftShoulder1  9.93923e-017 0 1.22299e-017
LeftArm  -8.99368 30.743 -78.2311
LeftForeArm  -6.32708 -6.15742 -6.11115
LeftHand  0.916056 6.39322 -2.74954
RightShoulder  1.98785e-016 -4.96962e-017 1.55301e-017
RightArm  -22.13 -29.712 87.6275
RightForeArm  -157.331 9.43242 -10.2008
RightHand  1.88888 10.7419 19.1799
LeftUpLeg  -19.8781 -10.1591 -7.10182
LeftLeg  26.6324 2.63015 6.75806
LeftFoot  -5.12609 -0.0991096 1.15889
LeftToes  1.49248e-009 -4.82331e-011 8.60243e-011
98
root  15.3631 38.2866 1.88691 59.6881 86.7867 61.6044
RightUpLeg  -8.09861 1.11048 -3.60778
RightLeg  59.1558 11.7061 2.36496
RightFoot  15.4176 -3.00651 11.8039
RightToes  -2.32832e-010 -1.59028e-015 9.93923e-017
Spine  4.64545 -0.0991445 -1.66594
Spine1  10.3372 0.500418 -8.04804
HEad  -12.8972 0.396598 3.09087
LeftShoulder1  9.93923e-017 0 1.22299e-017
LeftArm  1.91319 25.2149 -79.8627
LeftForeArm  -14.5544 -13.2346 -3.0807
LeftHand  0.819666 5.72449 -1.28416
RightShoulder  1.98785e-016 -4.96962e-017 1.55301e-017
RightArm  -24.3394 -35.9068 87.1509
RightForeArm  -149.44 5.90873 -7.48828
RightHand  1.63724 11.3674 17.2553
LeftUpLeg  -15.7424 -10.0008 -6.75356
LeftLeg  24.9417 1.87246 6.03279
LeftFoot  -7.281 -0.0768111 1.0348
LeftToes  1.49248e-009 -4.82331e-011 8.60243e-011
99
root  17.0831 38.5891 1.84595 76.1369 88.2102 78.1807
RightUpLeg  -12.4122 0.0312431 -2.16786
RightLeg  58.5233 11.2254 1.46744
RightFoot  11.9366 -2.26291 10.1787
RightToes  -2.32832e-010 -1.59028e-015 9.93923e-017
Spine  3.95638 -1.23609 -2.44674
Spine1  10.1343 -1.26498 -5.94794
HEad  -11.6725 1.44374 2.70872
LeftShoulder1  9.93923e-017 0 1.22299e-017
LeftArm  17.953 20.4753 -80.9817
LeftForeArm  -28.5637 -20.4407 4.60651
LeftHand  0.762549 5.46017 0.24614
RightShoulder  1.98785e-016 -4.96962e-017 1.55301e-017
RightArm  -23.7032 -42.8633 85.2987
RightForeArm  -143.192 5.38703 -6.05332
RightHand  1.29698 11.3249 15.0714
LeftUpLeg  -11.7593 -8.38744 -6.37183
LeftLeg  23.0232 -0.51668 5.33561
LeftFoot  -8.6233 -0.0822804 1.36356
LeftToes  1.49248e-009 -4.82331e-011 8.60243e-011
100
root  18.8063 38.8125 1.83522 131.83 88.8021 134.012
RightUpLeg  -16.2452 -0.903717 -0.861385
RightLeg  55.6002 10.6696 0.510581
RightFoot  9.34288 -1.7124 8.6275
RightToes  -2.32832e-010 -1.59028e-015 9.93923e-017
Spine  3.64953 -2.34515 -3.89878
Spine1  9.41011 -3.09764 -3.14942
HEad  -10.6894 2.53351 2.46568
LeftShoulder1  9.93923e-017 0 1.22299e-017
LeftArm  30.9365 16.4387 -81.1785
LeftForeArm  -40.7099 -24.4484 14.6096
LeftHand  0.724905 5.36841 1.79501
RightShoulder  1.98785e-016 -4.96962e-017 1.55301e-017
RightArm  -19.7118 -50.1123 81.6142
RightForeArm  -140.739 7.14179 -5.55421
RightHand  1.10725 10.9791 13.9099
LeftUpLeg  -7.87046 -5.72347 -5.81975
LeftLeg  21.0032 -3.95608 4.58624
LeftFoot  -9.81059 -0.0843627 1.77095
LeftToes  1.49248e-009 -4.82331e-011 8.60243e-011
101
root  20.5039 38.9931 1.84554 173.82 88.0552 176.351
RightUpLeg  -19.2095 -1.79725 0.27664
RightLeg  50.5287 10.3874 0.191148
RightFoot  6.36538 -1.1636 6.78773
RightToes  -2.32832e-010 -1.59028e-015 9.93923e-017
Spine  4.00587 -3.38565 -5.47886
Spine1  8.30576 -4.76221 -0.225233
HEad  -10.0362 3.61378 2.51767
LeftShoulder1  9.93923e-017 0 1.22299e-017
LeftArm  29.1533 12.1749 -80.0334
LeftForeArm  -37.3246 -27.6889 18.3911
LeftHand  0.6752 5.21015 3.23078
RightShoulder  1.98785e-016 -4.96962e-017 1.55301e-017
RightArm  -13.2486 -56.9385 75.914
RightForeArm  -142.651 9.5021 -5.87684
RightHand  1.10389 10.7012 13.9428
LeftUpLeg  -3.88069 -2.85108 -4.79598
LeftLeg  18.9609 -7.47407 3.71204
LeftFoot  -11.1461 -0.0648734 1.63539
LeftToes  1.49248e-009 -4.82331e-011 8.60243e-011
102
root  22.1462 39.0456 1.87913 -176.955 87.2278 -174.07
RightUpLeg  -21.3471 -2.59695 1.02611
RightLeg  43.1689 10.4715 0.41833
RightFoot  3.79158 -0.896485 6.04323
RightToes  -2.32832e-010 -1.59028e-015 9.93923e-017
Spine  4.59243 -4.27779 -6.94178
Spine1  7.25428 -6.04645 1.98468
HEad  -9.63736 4.70268 2.87066
LeftShoulder1  9.93923e-017 0 1.22299e-017
LeftArm  25.5358 7.72886 -78.3435
LeftForeArm  -32.2793 -30.7411 19.9279
LeftHand  0.631205 5.07089 4.32225
RightShoulder  1.98785e-016 -4.96962e-017 1.55301e-017
RightArm  -6.06589 -62.571 68.6697
RightForeArm  -146.643 11.1219 -6.68705
RightHand  1.17535 10.4309 14.4855
LeftUpLeg  -0.203559 -0.728777 -3.65782
LeftLeg  17.5352 -10.1613 2.95175
LeftFoot  -12.3043 -0.0470194 1.15368
LeftToes  1.49248e-009 -4.82331e-011 8.60243e-011
103
root  23.7589 38.9802 1.92334 -175.627 86.6738 -172.741
RightUpLeg  -22.755 -2.98926 1.45359
RightLeg  33.3583 11.0151 0.914049
RightFoot  3.34178 -0.930689 6.44648
RightToes  -2.32832e-010 -1.59028e-015 9.93923e-017
Spine  4.68442 -5.07935 -8.04273
Spine1  6.67305 -6.98015 3.3825
HEad  -9.52545 5.77683 3.31645
LeftShoulder1  9.93923e-017 0 1.22299e-017
LeftArm  23.5459 3.36859 -76.5076
LeftForeArm  -29.3528 -32.9299 21.0645
LeftHand  0.621446 5.0777 4.91235
RightShoulder  1.98785e-016 -4.96962e-017 1.55301e-017
RightArm  0.167644 -66.581 61.0355
RightForeArm  -149.344 11.6044 -7.51938
RightHand  1.23232 10.2798 14.9134
LeftUpLeg  2.97507 0.302982 -2.78417
LeftLeg  16.4874 -11.7034 2.50151
LeftFoot  -13.0989 -0.0406381 0.908852
LeftToes  1.49248e-009 -4.82331e-011 8.60243e-011
104
root  25.3488 38.9347 1.95178 -171.573 86.188 -168.961
RightUpLeg  -23.0734 -2.34976 1.8383
RightLeg  20.9729 11.8315 1.19032
RightFoot  4.2819 -0.984281 6.44373
RightToes  -2.32832e-010 -1.59028e-015 9.93923e-017
Spine  4.3803 -5.81543 -8.29288
Spine1  6.642 -7.72529 4.44888
HEad  -9.78725 6.66038 3.60199
LeftShoulder1  9.93923e-017 0 1.22299e-017
LeftArm  22.3148 -0.439222 -74.8027
LeftForeArm  -27.435 -34.4245 21.8748
LeftHand  0.609618 5.05164 5.28335
RightShoulder  1.98785e-016 -4.96962e-017 1.55301e-017
RightArm  4.75106 -69.0768 54.1193
RightForeArm  -149.63 11.1875 -8.09107
RightHand  1.27554 10.4521 15.1624
LeftUpLeg  6.06684 0.64946 -1.82348
LeftLeg  14.8317 -12.4725 2.25828
LeftFoot  -13.5313 -0.0390034 0.382278
LeftToes  1.49248e-009 -4.82331e-011 8.60243e-011
105
root  26.9446 38.882 1.98216 -167.057 85.7038 -164.568
RightUpLeg  -22.0931 1.36586 0.981983
RightLeg  7.42724 9.74222 1.16179
RightFoot  4.32358 -0.916799 5.98886
RightToes  -2.32832e-010 -1.59028e-015 9.93923e-017
Spine  4.285 -6.30323 -8.15175
Spine1  6.84767 -8.32264 5.46254
HEad  -10.354 7.13292 3.65313
LeftShoulder1  9.93923e-017 0 1.22299e-017
LeftArm  21.289 -3.29993 -73.5949
LeftForeArm  -25.7123 -35.2944 22.4001
LeftHand  0.543597 4.77493 5.9317
RightShoulder  1.98785e-016 -4.96962e-017 1.55301e-017
RightArm  7.88701 -70.3945 48.5519
RightForeArm  -148.745 10.2592 -8.31252
RightHand  1.32026 10.8686 15.3469
LeftUpLeg  9.21896 0.90012 -0.623634
LeftLeg  13.1835 -13.1789 1.99168
LeftFoot  -13.6372 -0.0421528 -1.24173
LeftToes  1.49248e-009 -4.82331e-011 8.60243e-011
106
root  28.6451 38.6941 2.05613 -166.75 85.4178 -164.12
RightUpLeg  -21.1763 4.05761 0.280576
RightLeg  -2.3031 7.05441 0.813427
RightFoot  2.63835 -0.848564 6.14487
RightToes  -2.32832e-010 -1.59028e-015 9.93923e-017
Spine  4.34574 -6.43296 -8.40353
Spine1  7.0431 -8.66292 6.48969
HEad  -11.0154 7.14607 3.54964
LeftShoulder1  9.93923e-017 0 1.22299e-017
LeftArm  20.3418 -4.99556 -73.1959
LeftForeArm  -24.1754 -35.4473 22.5712
LeftHand  0.446771 4.39725 6.8749
RightShoulder  1.98785e-016 -4.96962e-017 1.55301e-017
RightArm  9.37994 -70.8081 45.201
RightForeArm  -147.933 9.22414 -8.28804
RightHand  1.34837 11.2257 15.4316
LeftUpLeg  12.2639 1.10249 0.481055
LeftLeg  12.7406 -14.105 1.63958
LeftFoot  -13.2435 -0.0338875 -3.19341
LeftToes  1.49248e-009 -4.82331e-011 8.60243e-011
